<?xml version="1.0" standalone="no"?>
<!DOCTYPE svg PUBLIC "-//W3C//DTD SVG 20010904//EN"
 "http://www.w3.org/TR/2001/REC-SVG-20010904/DTD/svg10.dtd">
<svg version="1.0" xmlns="http://www.w3.org/2000/svg"
 width="500.000000pt" height="500.000000pt" viewBox="0 0 500.000000 500.000000"
 preserveAspectRatio="xMidYMid meet">
<metadata>
Created by potrace 1.11, written by Peter Selinger 2001-2013
</metadata>
<g transform="translate(0.000000,500.000000) scale(0.100000,-0.100000)"
fill="#FFFFFF" stroke="none">
<path d="M2355 4780 c-241 -15 -547 -89 -757 -183 l-68 -30 0 -1111 c0 -702
-4 -1143 -10 -1196 -23 -186 -92 -369 -180 -475 -103 -123 -248 -214 -405
-255 -118 -30 -291 -45 -402 -34 -51 6 -93 8 -93 6 0 -11 90 -167 148 -256
174 -270 430 -522 700 -689 203 -126 428 -223 640 -277 554 -140 1110 -80
1608 174 125 63 334 192 334 206 0 4 -37 15 -82 25 -222 47 -434 161 -584 311
-321 320 -474 826 -474 1565 0 496 77 901 228 1204 151 303 401 522 703 616
41 13 78 26 82 30 24 19 -307 184 -499 248 -302 101 -585 140 -889 121z"/>
<path d="M904 4125 c-157 -156 -221 -233 -325 -392 -163 -251 -276 -541 -335
-868 -24 -128 -27 -538 -5 -625 43 -173 158 -278 326 -297 201 -24 356 47 430
195 56 111 55 107 53 1159 l-3 968 -141 -140z"/>
<path d="M4068 4009 c-464 -38 -725 -339 -815 -937 -23 -152 -26 -860 -5
-1012 78 -554 280 -841 662 -943 84 -23 142 -29 274 -29 l121 1 35 39 c50 56
154 227 221 362 240 483 296 1048 159 1586 -82 320 -261 661 -470 900 -34 39
-59 44 -182 33z"/>
</g>
</svg>
